<?xml version="1.0" encoding="utf-8"?>
<!-- Generator: Adobe Illustrator 18.1.1, SVG Export Plug-In . SVG Version: 6.00 Build 0)  -->
<!DOCTYPE svg PUBLIC "-//W3C//DTD SVG 1.1//EN" "http://www.w3.org/Graphics/SVG/1.1/DTD/svg11.dtd">
<svg version="1.1" id="Layer_1" xmlns="http://www.w3.org/2000/svg" xmlns:xlink="http://www.w3.org/1999/xlink" x="0px" y="0px"
	 width="30px" height="30px" viewBox="0 0 30 30" enable-background="new 0 0 30 30" xml:space="preserve">
<path d="M23.9,7.4c0-3.8-3.1-6.9-6.9-6.9h-3.1C10.1,0.5,7,3.6,7,7.4v0.3c0,2,0.8,3.7,2.1,5c0,0.2,0,0.4,0,0.6v1.9
	c0,3.3,2.7,5.9,5.9,5.9h0.8c3.3,0,5.9-2.7,6-5.9v-1.9c0-0.2,0-0.4,0-0.6c1.3-1.3,2.1-3.1,2.1-5.1V7.4z M17.8,7.7
	c0.3-0.2,0.8-0.3,1.2-0.3c1.2,0,2.1,0.8,2.1,1.8c0,0.3-0.1,0.6-0.3,0.9c-0.4,0.5-1,0.9-1.8,0.9c-1.2,0-2.1-0.8-2.1-1.8
	C16.9,8.6,17.3,8,17.8,7.7z M15.7,12c0.2-0.1,0.5,0.1,0.7,0.5c0.2,0.4,0.1,0.7-0.1,0.8c-0.2,0.1-0.5-0.1-0.7-0.5
	C15.4,12.4,15.5,12,15.7,12z M14.1,12.4c0.2-0.3,0.5-0.6,0.7-0.5c0.2,0.1,0.2,0.5,0.1,0.8c-0.2,0.3-0.5,0.6-0.7,0.5
	C14,13.1,14,12.8,14.1,12.4z M11.7,7.4c0.5,0,0.9,0.1,1.3,0.4c0.5,0.3,0.8,0.8,0.8,1.4c0,1-0.9,1.8-2.1,1.8c-0.7,0-1.4-0.3-1.7-0.8
	c-0.2-0.3-0.4-0.6-0.4-1C9.6,8.2,10.5,7.4,11.7,7.4z M12.3,18.1c0,0.3-0.3,0.6-0.6,0.6s-0.6-0.3-0.6-0.6v-0.7c0-0.3,0.3-0.6,0.6-0.6
	s0.6,0.3,0.6,0.6V18.1z M12.3,15.9c0,0.3-0.3,0.6-0.6,0.6s-0.6-0.3-0.6-0.6v-0.7c0-0.3,0.3-0.6,0.6-0.6s0.6,0.3,0.6,0.6V15.9z
	 M13.8,18.4c0,0.3-0.3,0.6-0.6,0.6s-0.6-0.3-0.6-0.6v-0.7c0-0.3,0.3-0.6,0.6-0.6s0.6,0.3,0.6,0.6V18.4z M13.8,16.3
	c0,0.4-0.3,0.6-0.6,0.6s-0.6-0.3-0.6-0.6v-0.7c0-0.3,0.3-0.6,0.6-0.6s0.6,0.3,0.6,0.6V16.3z M15.3,18.6c0,0.3-0.3,0.6-0.6,0.6
	s-0.6-0.3-0.6-0.6v-0.7c0-0.3,0.3-0.6,0.6-0.6s0.6,0.3,0.6,0.6V18.6z M15.3,16.5c0,0.4-0.3,0.6-0.6,0.6s-0.6-0.3-0.6-0.6v-0.7
	c0-0.3,0.3-0.6,0.6-0.6s0.6,0.3,0.6,0.6V16.5z M16.7,18.6c0,0.3-0.3,0.6-0.6,0.6c-0.3,0-0.6-0.3-0.6-0.6v-0.7c0-0.3,0.3-0.6,0.6-0.6
	c0.3,0,0.6,0.3,0.6,0.6V18.6z M16.7,16.5c0,0.4-0.3,0.6-0.6,0.6c-0.3,0-0.6-0.3-0.6-0.6v-0.7c0-0.3,0.3-0.6,0.6-0.6
	c0.3,0,0.6,0.3,0.6,0.6V16.5z M18,18.5c0,0.3-0.2,0.6-0.6,0.6c-0.3,0-0.6-0.3-0.6-0.6v-0.7c0-0.3,0.3-0.6,0.6-0.6
	c0.3,0,0.6,0.3,0.6,0.6V18.5z M18.1,16.4c0,0.4-0.2,0.6-0.6,0.6c-0.3,0-0.6-0.3-0.6-0.6v-0.7c0-0.3,0.3-0.6,0.6-0.6s0.6,0.3,0.6,0.6
	V16.4z M19.4,18.1c0,0.3-0.3,0.6-0.6,0.6s-0.6-0.3-0.6-0.6v-0.7c0-0.3,0.3-0.6,0.6-0.6s0.6,0.3,0.6,0.6V18.1z M19.5,15.9
	c0,0.3-0.3,0.6-0.6,0.6c-0.3,0-0.6-0.3-0.6-0.6v-0.7c0-0.3,0.3-0.6,0.6-0.6c0.3,0,0.6,0.3,0.6,0.6V15.9z"/>
<path d="M24.3,26.5c0.3,0.3,0.5,0.7,0.5,1.2c0,0.4-0.2,0.8-0.5,1.1l-0.4,0.4c-0.6,0.6-1.7,0.6-2.3,0c-0.3-0.3-0.4-0.6-0.4-1
	l-5.9-2.6l-5.2,2.3c0,0.1,0,0.2,0,0.2c0,0.4-0.2,0.8-0.5,1.1c-0.6,0.6-1.7,0.6-2.3,0L7,28.9c-0.3-0.4-0.5-0.8-0.5-1.2
	c0-0.4,0.2-0.8,0.5-1.1c0.5-0.5,1.2-0.6,1.8-0.3l4-1.8l-4-1.8C8.2,23,7.5,22.9,7,22.4c-0.3-0.3-0.5-0.7-0.5-1.2s0.2-0.8,0.5-1.2
	l0.4-0.4c0.6-0.6,1.7-0.6,2.3,0c0.3,0.3,0.5,0.8,0.5,1.2c0,0.1,0,0.1,0,0.2l5.2,2.3l5.9-2.6c0-0.4,0.2-0.8,0.4-1
	c0.6-0.6,1.7-0.6,2.3,0l0.4,0.4c0.4,0.4,0.5,0.8,0.5,1.2c0,0.4-0.2,0.8-0.5,1.1c-0.5,0.5-1.5,0.6-2.1,0.2l-4.4,1.9l4.3,1.9
	C22.7,25.9,23.7,25.9,24.3,26.5z"/>
</svg>
